<svg xmlns="http://www.w3.org/2000/svg" viewBox="0 0 500 500"><g id="freepik--background-complete--inject-5"><rect y="382.4" width="500" height="0.25" style="fill:#ebebeb"></rect><rect x="416.78" y="398.49" width="33.12" height="0.25" style="fill:#ebebeb"></rect><rect x="322.53" y="401.21" width="8.69" height="0.25" style="fill:#ebebeb"></rect><rect x="396.59" y="389.21" width="19.19" height="0.25" style="fill:#ebebeb"></rect><rect x="52.46" y="390.89" width="43.19" height="0.25" style="fill:#ebebeb"></rect><rect x="104.56" y="390.89" width="6.33" height="0.25" style="fill:#ebebeb"></rect><rect x="131.47" y="395.11" width="93.68" height="0.25" style="fill:#ebebeb"></rect><path d="M237,337.8H43.91a5.71,5.71,0,0,1-5.7-5.71V60.66A5.71,5.71,0,0,1,43.91,55H237a5.71,5.71,0,0,1,5.71,5.71V332.09A5.71,5.71,0,0,1,237,337.8ZM43.91,55.2a5.46,5.46,0,0,0-5.45,5.46V332.09a5.46,5.46,0,0,0,5.45,5.46H237a5.47,5.47,0,0,0,5.46-5.46V60.66A5.47,5.47,0,0,0,237,55.2Z" style="fill:#ebebeb"></path><path d="M453.31,337.8H260.21a5.72,5.72,0,0,1-5.71-5.71V60.66A5.72,5.72,0,0,1,260.21,55h193.1A5.71,5.71,0,0,1,459,60.66V332.09A5.71,5.71,0,0,1,453.31,337.8ZM260.21,55.2a5.47,5.47,0,0,0-5.46,5.46V332.09a5.47,5.47,0,0,0,5.46,5.46h193.1a5.47,5.47,0,0,0,5.46-5.46V60.66a5.47,5.47,0,0,0-5.46-5.46Z" style="fill:#ebebeb"></path><path d="M215.37,75.34l.84,1.71a.67.67,0,0,0,.52.37l1.89.28a.68.68,0,0,1,.37,1.16l-1.36,1.34a.67.67,0,0,0-.2.6l.32,1.88a.68.68,0,0,1-1,.72l-1.69-.89a.7.7,0,0,0-.63,0l-1.7.89a.68.68,0,0,1-1-.72l.33-1.88a.7.7,0,0,0-.2-.6l-1.37-1.34a.68.68,0,0,1,.38-1.16l1.89-.28a.69.69,0,0,0,.52-.37l.84-1.71A.69.69,0,0,1,215.37,75.34Z" style="fill:#f5f5f5"></path><path d="M90.86,216.19l.85,1.72a.68.68,0,0,0,.51.37l1.89.28a.68.68,0,0,1,.38,1.16l-1.37,1.33a.69.69,0,0,0-.19.61l.32,1.88a.68.68,0,0,1-1,.72l-1.69-.89a.72.72,0,0,0-.64,0l-1.69.89a.68.68,0,0,1-1-.72l.32-1.88a.69.69,0,0,0-.19-.61L86,219.72a.68.68,0,0,1,.38-1.16l1.89-.28a.68.68,0,0,0,.51-.37l.85-1.72A.68.68,0,0,1,90.86,216.19Z" style="fill:#f0f0f0"></path><path d="M75.16,121.69,76,123.4a.69.69,0,0,0,.51.38l1.89.27a.69.69,0,0,1,.38,1.17l-1.37,1.33a.71.71,0,0,0-.2.6l.33,1.89a.68.68,0,0,1-1,.72l-1.69-.89a.66.66,0,0,0-.64,0l-1.69.89a.68.68,0,0,1-1-.72l.32-1.89a.65.65,0,0,0-.2-.6l-1.36-1.33a.68.68,0,0,1,.37-1.17l1.89-.27a.71.71,0,0,0,.52-.38l.84-1.71A.69.69,0,0,1,75.16,121.69Z" style="fill:#f0f0f0"></path><path d="M150.93,164.67l.5,1a.42.42,0,0,0,.31.22l1.13.16a.41.41,0,0,1,.22.7l-.81.8a.4.4,0,0,0-.12.36l.19,1.12a.4.4,0,0,1-.59.43l-1-.53a.42.42,0,0,0-.38,0l-1,.53a.4.4,0,0,1-.59-.43l.19-1.12a.4.4,0,0,0-.12-.36l-.82-.8a.41.41,0,0,1,.23-.7l1.13-.16a.42.42,0,0,0,.31-.22l.5-1A.42.42,0,0,1,150.93,164.67Z" style="fill:#f0f0f0"></path><path d="M120.28,295.7l.5,1a.43.43,0,0,0,.31.23l1.13.16a.41.41,0,0,1,.23.7l-.82.79a.42.42,0,0,0-.12.37l.2,1.12a.41.41,0,0,1-.6.43l-1-.53a.42.42,0,0,0-.38,0l-1,.53a.41.41,0,0,1-.59-.43l.19-1.12a.42.42,0,0,0-.11-.37l-.82-.79a.41.41,0,0,1,.22-.7l1.13-.16a.41.41,0,0,0,.31-.23l.51-1A.41.41,0,0,1,120.28,295.7Z" style="fill:#f5f5f5"></path><path d="M434.4,76.9l.5,1a.39.39,0,0,0,.31.22l1.13.17a.41.41,0,0,1,.23.7l-.82.79a.41.41,0,0,0-.12.36l.2,1.13a.41.41,0,0,1-.6.43l-1-.53a.42.42,0,0,0-.38,0l-1,.53a.41.41,0,0,1-.59-.43l.19-1.13a.41.41,0,0,0-.11-.36L431.5,79a.41.41,0,0,1,.22-.7l1.13-.17a.38.38,0,0,0,.31-.22l.51-1A.4.4,0,0,1,434.4,76.9Z" style="fill:#f5f5f5"></path><path d="M425.71,265.63l.87,1.77a.68.68,0,0,0,.53.38l2,.29a.7.7,0,0,1,.39,1.2L428,270.65a.73.73,0,0,0-.2.63l.34,2a.71.71,0,0,1-1,.74l-1.75-.92a.7.7,0,0,0-.66,0L423,274a.7.7,0,0,1-1-.74l.33-2a.7.7,0,0,0-.2-.63l-1.42-1.38a.71.71,0,0,1,.4-1.2l1.95-.29a.68.68,0,0,0,.53-.38l.88-1.77A.71.71,0,0,1,425.71,265.63Z" style="fill:#f0f0f0"></path><path d="M318.59,99.89a1.33,1.33,0,1,1-1.33-1.33A1.33,1.33,0,0,1,318.59,99.89Z" style="fill:#f0f0f0"></path><path d="M356.76,357.67a1.33,1.33,0,1,1-1.33-1.33A1.32,1.32,0,0,1,356.76,357.67Z" style="fill:#f5f5f5"></path><path d="M132.75,83.31a5.69,5.69,0,1,1-5.69-5.69A5.69,5.69,0,0,1,132.75,83.31Z" style="fill:#f0f0f0"></path><path d="M186.59,120.91a59,59,0,0,0,10.4.89,12.15,12.15,0,0,1-20.55-3.48A60.09,60.09,0,0,0,186.59,120.91Z" style="fill:#f5f5f5"></path><path d="M188.36,110.41a56.15,56.15,0,0,0-12-.84,12.16,12.16,0,0,1,23.52,4A55.94,55.94,0,0,0,188.36,110.41Z" style="fill:#f5f5f5"></path><ellipse cx="187.77" cy="113.89" rx="4.2" ry="19.13" transform="translate(44.19 280.05) rotate(-80.41)" style="fill:#f5f5f5"></ellipse><path d="M433.64,202.8a79.31,79.31,0,0,1-106.42,35.5c-1.62-.8-3.19-1.65-4.69-2.55a98,98,0,0,0,46.6-147.52A79.37,79.37,0,0,1,433.64,202.8Z" style="fill:#f5f5f5"></path><path d="M397.36,109.35a18,18,0,0,1,7.28,13.51,45.61,45.61,0,0,0-9.92-10,46.44,46.44,0,0,0-12.44-6.58A18,18,0,0,1,397.36,109.35Z" style="fill:#f0f0f0"></path><path d="M377.33,229.59a18,18,0,0,1-15.2,2.18,45.39,45.39,0,0,0,12.76-5.88,46.37,46.37,0,0,0,10.47-9.41A18,18,0,0,1,377.33,229.59Z" style="fill:#f0f0f0"></path><path d="M404.66,154.09a17.93,17.93,0,0,1,0,15.35,45.07,45.07,0,0,0-4-13.47,46.37,46.37,0,0,0-7.82-11.69A18,18,0,0,1,404.66,154.09Z" style="fill:#f0f0f0"></path><path d="M417.55,208.54a18,18,0,0,1-13.81,6.72,45.12,45.12,0,0,0,10.35-9.5,46.47,46.47,0,0,0,7.1-12.15A18,18,0,0,1,417.55,208.54Z" style="fill:#f0f0f0"></path></g><g id="freepik--Shadow--inject-5"><ellipse id="freepik--path--inject-5" cx="250" cy="416.24" rx="193.89" ry="11.32" style="fill:#f5f5f5"></ellipse></g><g id="freepik--Rocket--inject-5"><path d="M254.35,132.83l-.7-.55c3.15-4,6.46-7.76,9.84-11.28l.63.62C260.76,125.11,257.47,128.89,254.35,132.83Z" style="fill:#50B2E8"></path><rect x="246.75" y="137.98" width="5.19" height="0.88" transform="translate(-14.05 247.76) rotate(-51.58)" style="fill:#50B2E8"></rect><path d="M320,179.22c21.73-34.93,24.69-69.35,8.87-80.49s-47.23,3.24-72.8,35.47L183,226.37l74.92,52.76Z" style="fill:#50B2E8"></path><path d="M311.45,173.2l-63.6,98.87-7.78-14.87L303.24,167c17.86-25.51,27.87-48.82,27.91-61.8a1.06,1.06,0,0,1,2.06-.36C337.71,117.79,329.91,144.51,311.45,173.2Z" style="fill:#fff;opacity:0.1"></path><ellipse cx="220.42" cy="252.75" rx="31.81" ry="45.82" transform="translate(-113.15 287.44) rotate(-54.85)" style="fill:#50B2E8"></ellipse><ellipse cx="220.42" cy="252.75" rx="31.81" ry="45.82" transform="translate(-113.15 287.44) rotate(-54.85)" style="fill:#fff;opacity:0.5"></ellipse><path d="M250.1,210.44c-16.44-11.58-35.09-14.89-47-9.48l-18.55,23.38c11-12.28,34.51-11.44,54.17,2.4s28.39,35.73,20.51,50.2l15.57-25C276.14,238.81,266.72,222.14,250.1,210.44Z" style="opacity:0.1"></path><path d="M276.43,135.06c-4.56,7.22-8,20.73,5.55,30.26s25.11,1.76,30.36-5Z" style="opacity:0.2"></path><path d="M315.54,152c-1.55,12.9-16.46,22.31-32.11,11.29s-11.82-28.23-.2-34c7.16-3.58,16.28-2,22.52,2.34S316.5,144,315.54,152Z" style="fill:#fff"></path><path d="M285.56,160.24c-6.09-4.28-9.21-9.88-8.77-15.74a14.7,14.7,0,0,1,8.1-12c5.44-2.72,13.14-1.87,18.73,2.06s9,10.91,8.25,16.95a14.68,14.68,0,0,1-8.53,11.65C298,165.58,291.65,164.53,285.56,160.24Z" style="fill:#50B2E8"></path><path d="M285.56,160.24c-6.09-4.28-9.21-9.88-8.77-15.74a14.7,14.7,0,0,1,8.1-12c5.44-2.72,13.14-1.87,18.73,2.06s9,10.91,8.25,16.95a14.68,14.68,0,0,1-8.53,11.65C298,165.58,291.65,164.53,285.56,160.24Z" style="opacity:0.30000000000000004"></path><path d="M285.56,160.24c-6.09-4.28-9.32-9.72-9.08-15.3A12.89,12.89,0,0,1,284,133.78c5.23-2.42,12.78-1.36,18.37,2.58s9.13,10.69,8.61,16.43a12.87,12.87,0,0,1-8,10.84C297.85,165.74,291.65,164.53,285.56,160.24Z" style="fill:#50B2E8"></path><path d="M285.56,160.24c-6.09-4.28-9.32-9.72-9.08-15.3A12.89,12.89,0,0,1,284,133.78c5.23-2.42,12.78-1.36,18.37,2.58s9.13,10.69,8.61,16.43a12.87,12.87,0,0,1-8,10.84C297.85,165.74,291.65,164.53,285.56,160.24Z" style="fill:#fff;opacity:0.2"></path><path d="M306.61,140.31l-28.15,12.42a14.34,14.34,0,0,1-2-7.79,12.45,12.45,0,0,1,.75-3.77l18.17-8a21.13,21.13,0,0,1,11.21,7.16Z" style="fill:#fff;opacity:0.30000000000000004"></path><path d="M310.65,148.32,284.82,159.7a24.94,24.94,0,0,1-4.22-3.92l28.1-12.4A19,19,0,0,1,310.65,148.32Z" style="fill:#fff;opacity:0.30000000000000004"></path><path d="M338.81,126.05c-.86-6.9-6.16-14.88-14.54-20.78s-17.67-8.2-24.46-6.69c11.55-4.71,21.9-4.89,29.06.15S339.35,113.59,338.81,126.05Z" style="opacity:0.1"></path><ellipse cx="227.31" cy="242.96" rx="9.91" ry="13.95" transform="translate(-102.22 288.93) rotate(-54.85)" style="fill:#50B2E8;opacity:0.5"></ellipse><path d="M209,246.78c-3.15,4.47-10.81,4.51-17.11.07s-8.86-11.66-5.71-16.13,10.82-4.51,17.12-.07S212.11,242.31,209,246.78Z" style="fill:#50B2E8;opacity:0.5"></path><path d="M252.71,277.59c-3.15,4.48-10.81,4.51-17.11.07s-8.85-11.66-5.7-16.13,10.81-4.51,17.11-.07S255.86,273.12,252.71,277.59Z" style="fill:#50B2E8;opacity:0.5"></path><path d="M223,273.38c-3.15,4.47-10.81,4.5-17.11.07s-8.85-11.66-5.7-16.14,10.81-4.5,17.11-.07S226.11,268.9,223,273.38Z" style="fill:#50B2E8;opacity:0.5"></path><path d="M238.72,251a7.1,7.1,0,0,1-1.16,1.28c1.75-4.46-.89-10.65-6.52-14.61s-12.34-4.36-15.95-1.22a7.59,7.59,0,0,1,.81-1.51c3.15-4.47,10.82-4.51,17.12-.07S241.86,246.52,238.72,251Z" style="fill:#50B2E8;opacity:0.5"></path><path d="M209,246.78a7.36,7.36,0,0,1-1.15,1.28c1.75-4.47-.88-10.65-6.52-14.62s-12.34-4.36-15.95-1.21a7.32,7.32,0,0,1,.81-1.51c3.15-4.48,10.81-4.51,17.11-.07S212.11,242.3,209,246.78Z" style="fill:#50B2E8;opacity:0.5"></path><path d="M252.71,277.6a7.3,7.3,0,0,1-1.15,1.27c1.75-4.47-.89-10.65-6.52-14.61s-12.34-4.37-15.95-1.21a7.15,7.15,0,0,1,.81-1.52c3.15-4.48,10.81-4.51,17.11-.07S255.87,273.12,252.71,277.6Z" style="fill:#50B2E8;opacity:0.5"></path><path d="M223,273.38a6.61,6.61,0,0,1-1.15,1.27c1.75-4.46-.89-10.65-6.52-14.61s-12.34-4.36-15.95-1.21a6.94,6.94,0,0,1,.81-1.52c3.15-4.48,10.81-4.5,17.11-.07S226.11,268.9,223,273.38Z" style="fill:#50B2E8;opacity:0.5"></path><path d="M232.58,168.23s-13.5,17.52-25.26,32.6a15.48,15.48,0,0,1-14.21,5.71c-10.27-1.27-27,6-27,6S197.76,160.55,232.58,168.23Z" style="fill:#50B2E8"></path><path d="M232.58,168.23s-13.5,17.52-25.26,32.6a15.48,15.48,0,0,1-14.21,5.71c-10.27-1.27-27,6-27,6S197.76,160.55,232.58,168.23Z" style="opacity:0.30000000000000004"></path><path d="M295.89,212.82S284,231.43,273.71,247.58a15.47,15.47,0,0,0-.58,15.3c4.66,9.25,3.44,27.49,3.44,27.49S314.86,243,295.89,212.82Z" style="fill:#50B2E8"></path><path d="M295.89,212.82S284,231.43,273.71,247.58a15.47,15.47,0,0,0-.58,15.3c4.66,9.25,3.44,27.49,3.44,27.49S314.86,243,295.89,212.82Z" style="opacity:0.30000000000000004"></path><path d="M339.51,346.61C352,316.05,298,307.39,276.63,315.06s-43.16,13.37-44-7.08,15.62-33.13,7.77-37.85c-4.35-2.62-5.59,2-7.74,8.74-6.58,20.65-43.85,25.57-26.7,55.46s8,23.4-20.85,35.39-14,46.52,13.91,46.52H367.1C444.14,416.24,371.2,268.78,339.51,346.61Z" style="fill:#50B2E8"></path><path d="M339.51,346.61C352,316.05,298,307.39,276.63,315.06s-43.16,13.37-44-7.08,15.62-33.13,7.77-37.85c-4.35-2.62-5.59,2-7.74,8.74-6.58,20.65-43.85,25.57-26.7,55.46s8,23.4-20.85,35.39-14,46.52,13.91,46.52H367.1C444.14,416.24,371.2,268.78,339.51,346.61Z" style="fill:#fff;opacity:0.6000000000000001"></path><path d="M197.55,240.09c-2.24-7.78-14.36,2-26.3,13.85s-17.83,38.9-29.38,53S97.25,333.78,110.18,355c19.07,31.27-24.76,61.27,27.15,61.27H243.8c19.47,0,40.58-23.81,10.26-40s-75.74,21.56-88-14.45c-6.08-17.87,16-9.67,5.77-38.93s-9.55-37.23-4.34-50.27C180.17,240.84,201,251.91,197.55,240.09Z" style="fill:#50B2E8"></path><path d="M197.55,240.09c-2.24-7.78-14.36,2-26.3,13.85s-17.83,38.9-29.38,53S97.25,333.78,110.18,355c19.07,31.27-24.76,61.27,27.15,61.27H243.8c19.47,0,40.58-23.81,10.26-40s-75.74,21.56-88-14.45c-6.08-17.87,16-9.67,5.77-38.93s-9.55-37.23-4.34-50.27C180.17,240.84,201,251.91,197.55,240.09Z" style="fill:#fff;opacity:0.6000000000000001"></path><path d="M219.62,243.68c2.64-4.82,11.7-1.93,11.5,4.38s-23.66,14.58-19.3,36.37,46.24,23.35,56.07,45.18S239.64,354.5,251,368.15s46.42-17.7,71.4-9.64,49.94,57.73,4.12,57.73H185.33c-30.7,0-53.12-63.39-23.62-89.47s5.7-17.61,16.71-34.32S209.49,262.16,219.62,243.68Z" style="fill:#50B2E8"></path><path d="M219.62,243.68c2.64-4.82,11.7-1.93,11.5,4.38s-23.66,14.58-19.3,36.37,46.24,23.35,56.07,45.18S239.64,354.5,251,368.15s46.42-17.7,71.4-9.64,49.94,57.73,4.12,57.73H185.33c-30.7,0-53.12-63.39-23.62-89.47s5.7-17.61,16.71-34.32S209.49,262.16,219.62,243.68Z" style="fill:#fff;opacity:0.8"></path></g></svg>